<svg id="Capa_1" enable-background="new 0 0 512 512" height="512" viewBox="0 0 512 512" width="512" xmlns="http://www.w3.org/2000/svg"><g><g><path d="m146.686 59.631 16.929 74.17-16.929 74.159c-5.72 0-11.44 2.515-16.023 7.545-17.21 18.894-39.785 40.495-64.5 40.495h-58.03c-6.917 0-10.659-10.101-6.197-16.693l18.701-17.484c2.566-3.783 2.566-9.32 0-13.103l-18.71-27.625c-2.566-3.783-2.566-9.33-.01-13.113l18.721-27.625c2.566-3.783 2.566-9.32 0-13.103l-18.721-27.625c-2.556-3.783-2.556-9.32 0-13.103l18.721-27.635c2.566-3.783 2.566-9.32 0-13.103l-18.701-17.494c-4.462-6.592-.72-16.693 6.197-16.693h58.029c24.715 0 47.29 21.601 64.5 40.495 4.584 5.03 10.303 7.535 16.023 7.535z" fill="#fff492"/><path d="m272.734 208.71c-2.566 3.783-2.566 9.32 0 13.103l18.701 17.494c4.462 6.592.72 16.693-6.197 16.693h-58.029c-24.715 0-47.29-21.601-64.5-40.495-4.584-5.03-10.304-7.545-16.023-7.545v-148.329c5.72 0 11.439-2.505 16.023-7.535 17.21-18.893 39.785-40.495 64.5-40.495h58.029c6.906 0 10.659 10.101 6.197 16.693l-18.701 17.484c-2.556 3.783-2.556 9.32 0 13.103l18.721 27.625c2.555 3.783 2.555 9.33 0 13.113l-18.721 27.625c-2.566 3.783-2.566 9.32 0 13.103l18.721 27.625c2.555 3.783 2.555 9.32 0 13.103z" fill="#ffcf57"/><path d="m146.686 117.143 10.781 16.657-10.781 16.657c-16.115 22.22-37.31 34.451-59.774 34.451-8.407 0-15.212-6.815-15.212-15.212 0-8.407 6.805-15.212 15.212-15.212 12.079 0 24.167-7.343 34.238-20.689-10.07-13.336-22.159-20.678-34.238-20.678-8.407 0-15.212-6.805-15.212-15.212 0-8.397 6.805-15.212 15.212-15.212 22.464 0 43.659 12.23 59.774 34.45z" fill="#ffcf57"/><path d="m221.672 169.696c0 8.397-6.805 15.212-15.212 15.212-22.463 0-43.659-12.231-59.774-34.451v-33.315c16.115-22.22 37.31-34.451 59.774-34.451 8.407 0 15.212 6.815 15.212 15.212 0 8.407-6.805 15.212-15.212 15.212-12.079 0-24.167 7.342-34.238 20.678 10.07 13.346 22.159 20.689 34.238 20.689 8.407.002 15.212 6.807 15.212 15.214z" fill="#ff9c4a"/></g><g><path d="m365.314 304.03 16.929 74.17-16.929 74.159c-5.72 0-11.44 2.515-16.023 7.545-17.21 18.893-39.785 40.495-64.5 40.495h-58.029c-6.917 0-10.659-10.101-6.197-16.693l18.701-17.484c2.566-3.783 2.566-9.32 0-13.103l-18.711-27.625c-2.566-3.783-2.566-9.33-.01-13.113l18.721-27.625c2.566-3.783 2.566-9.32 0-13.103l-18.721-27.625c-2.556-3.783-2.556-9.32 0-13.103l18.721-27.635c2.566-3.783 2.566-9.32 0-13.103l-18.701-17.494c-4.462-6.592-.72-16.693 6.197-16.693h58.029c24.715 0 47.29 21.601 64.5 40.495 4.583 5.03 10.303 7.535 16.023 7.535z" fill="#fff492"/><path d="m491.362 453.109c-2.566 3.783-2.566 9.32 0 13.103l18.701 17.494c4.462 6.592.72 16.693-6.197 16.693h-58.029c-24.715 0-47.29-21.601-64.5-40.495-4.584-5.03-10.304-7.545-16.023-7.545v-148.329c5.72 0 11.439-2.505 16.023-7.535 17.21-18.893 39.785-40.495 64.5-40.495h58.029c6.906 0 10.659 10.101 6.197 16.693l-18.701 17.484c-2.556 3.783-2.556 9.32 0 13.103l18.721 27.625c2.555 3.783 2.555 9.33 0 13.113l-18.721 27.625c-2.566 3.783-2.566 9.32 0 13.103l18.721 27.625c2.555 3.783 2.555 9.32 0 13.103z" fill="#ffcf57"/><path d="m365.314 361.542 10.781 16.657-10.781 16.657c-16.115 22.22-37.31 34.451-59.774 34.451-8.407 0-15.212-6.815-15.212-15.212 0-8.407 6.805-15.212 15.212-15.212 12.079 0 24.167-7.343 34.238-20.689-10.07-13.336-22.159-20.678-34.238-20.678-8.407 0-15.212-6.805-15.212-15.212 0-8.397 6.805-15.212 15.212-15.212 22.463 0 43.659 12.23 59.774 34.45z" fill="#ffcf57"/><path d="m440.3 414.095c0 8.397-6.805 15.212-15.212 15.212-22.463 0-43.659-12.231-59.774-34.451v-33.315c16.115-22.22 37.31-34.451 59.774-34.451 8.407 0 15.212 6.815 15.212 15.212 0 8.407-6.805 15.212-15.212 15.212-12.079 0-24.167 7.342-34.238 20.678 10.07 13.346 22.159 20.689 34.238 20.689 8.407.002 15.212 6.807 15.212 15.214z" fill="#ff9c4a"/></g></g></svg>